<svg xmlns="http://www.w3.org/2000/svg" xmlns:xlink="http://www.w3.org/1999/xlink" viewBox="0 0 100 100"><defs><style>.cls-1{fill:none;}.cls-2{clip-path:url(#clip-path);}.cls-3{fill:#e1dad2;}.cls-4{fill:#c8bcb2;}.cls-10,.cls-5{fill:#fff;}.cls-6{fill:#171717;}.cls-7{fill:#ffa83e;}.cls-8{fill:#feec89;}.cls-9{fill:#002e70;}.cls-10{opacity:0;}</style><clipPath id="clip-path"><circle class="cls-1" cx="50.34" cy="47.5" r="36.25"/></clipPath></defs><g id="Lag_2" data-name="Lag 2"><g id="Lag_1-2" data-name="Lag 1"><g class="cls-2"><path class="cls-3" d="M81.76,64.37c-.31-5.34-1.23-6-1-10.42.06-1.23.26-3.5.16-6.78,0-.79-.06-2-.2-3.5a25,25,0,0,0-1.21-6.76A22.4,22.4,0,0,0,72.44,27a27,27,0,0,0-6-3.5,38.64,38.64,0,0,0-18.34-3.57,27.1,27.1,0,0,0-6.86,1A22.4,22.4,0,0,0,31,27.48a35.87,35.87,0,0,0-3.65,5.81A53.2,53.2,0,0,0,23.5,41.2c-.63,1.68-1,3-1.56,4.81-.58,2-1.1,3.72-1.56,6A103.5,103.5,0,0,0,19,62.68c-.12,1.15-.14,1.5-.16,1.69-.32,4.71-.54,7.88.89,11.66a21.15,21.15,0,0,0,7.07,9.2c3.58,2.69,7,3.56,11.67,4.76a48.6,48.6,0,0,0,11.26,1.56A48.45,48.45,0,0,0,62.13,90c4.69-1.2,8.09-2.07,11.67-4.76A21.23,21.23,0,0,0,80.88,76C82.25,72.39,82,69.28,81.76,64.37Z"/><path class="cls-4" d="M45.49,76.66A6.35,6.35,0,0,1,50.71,74a6.14,6.14,0,0,1,4.42,2.41,6.2,6.2,0,0,0-2.68,1.28,6.09,6.09,0,0,0-1.8,2.47,6,6,0,0,0-1.81-2.34A5.94,5.94,0,0,0,45.49,76.66Z"/><path class="cls-4" d="M52.32,72.39a6.36,6.36,0,0,1,5.22-2.61A6.14,6.14,0,0,1,62,72.19a6.13,6.13,0,0,0-4.48,3.75,6,6,0,0,0-1.81-2.34A5.87,5.87,0,0,0,52.32,72.39Z"/><path class="cls-4" d="M38.66,72.39a6.36,6.36,0,0,1,5.22-2.61,6.14,6.14,0,0,1,4.42,2.41,6.09,6.09,0,0,0-4.48,3.75,5.84,5.84,0,0,0-5.16-3.55Z"/><path class="cls-4" d="M45.49,67.55a6.35,6.35,0,0,1,5.22-2.62,6.14,6.14,0,0,1,4.42,2.41,6.2,6.2,0,0,0-2.68,1.28,6.09,6.09,0,0,0-1.8,2.47,6,6,0,0,0-1.81-2.34A5.94,5.94,0,0,0,45.49,67.55Z"/><path class="cls-4" d="M31.83,67.55a6.35,6.35,0,0,1,5.22-2.62,6.14,6.14,0,0,1,4.42,2.41,6.2,6.2,0,0,0-2.68,1.28A6.09,6.09,0,0,0,37,71.09a6,6,0,0,0-1.81-2.34A5.94,5.94,0,0,0,31.83,67.55Z"/><path class="cls-4" d="M59.15,67.55a6.35,6.35,0,0,1,5.22-2.62,6.14,6.14,0,0,1,4.42,2.41,6.18,6.18,0,0,0-2.67,1.28,6,6,0,0,0-1.81,2.47,6,6,0,0,0-1.81-2.34A5.92,5.92,0,0,0,59.15,67.55Z"/><circle class="cls-4" cx="42.39" cy="41.12" r="15.22"/><circle class="cls-4" cx="63.83" cy="45.29" r="15.22"/><circle class="cls-5" cx="42.39" cy="41.12" r="8"/><circle class="cls-6" cx="42.39" cy="41.12" r="5.21"/><circle class="cls-5" cx="44.5" cy="39.94" r="1.17"/><circle class="cls-5" cx="63.83" cy="45.29" r="7.94"/><circle class="cls-6" cx="63.83" cy="45.29" r="5.18"/><circle class="cls-5" cx="65.93" cy="44.12" r="1.16"/><path class="cls-3" d="M31.13,27.51,36.8,16.78l5.36,6.68Z"/><path class="cls-3" d="M79.36,36.88,78.12,24.81,70.64,29Z"/><ellipse class="cls-4" cx="61.87" cy="55.33" rx="3.8" ry="6.84" transform="translate(-4.24 105.51) rotate(-79)"/><ellipse class="cls-4" cx="40.43" cy="51.16" rx="3.8" ry="6.84" transform="translate(-17.5 81.1) rotate(-79)"/><path class="cls-7" d="M50.11,59.9c-2.38-.44-4.43-6.6-2-8.75,1.81-1.58,5.87-.81,7,1.36C56.61,55.43,52.47,60.34,50.11,59.9Z"/><path class="cls-8" d="M54.52,53.17a2.42,2.42,0,0,0-.81-1c-.28-.2-.65-.38-.71-.32s.12.19.31.5a4.52,4.52,0,0,1,.41,1,8.43,8.43,0,0,1,.2.86,6.44,6.44,0,0,1,0,1.95,4.23,4.23,0,0,0,.51-1A2.84,2.84,0,0,0,54.52,53.17Z"/></g><path class="cls-9" d="M75,62.06a4.09,4.09,0,0,0-2.23,4.36,4.28,4.28,0,0,0,4,3.12,4.68,4.68,0,0,0,4.3,7.1,6.46,6.46,0,0,0,2.58,5,6.2,6.2,0,0,0,4.22,1c0,2.67,2,4.5,3.7,4.38a3.61,3.61,0,0,0,2.8-2.36,3.78,3.78,0,0,0,1.58,3.72,2.94,2.94,0,0,0,3-.08c2.19-1.67.4-8.11-1.65-12.06a23.07,23.07,0,0,0-7.87-8.54c-.9-.56-.35-.12-5.76-2.68C77.86,62.25,76.49,61.39,75,62.06Z"/><path class="cls-9" d="M28.08,56.18c-.48,1.76-3.75,2.1-3.91,2.11-3.46.33-5.71-2.58-5.87-2.79a15.32,15.32,0,0,1-2.4.63,7.2,7.2,0,0,1-3,.06,3.57,3.57,0,0,1-2.64-1.57,3.29,3.29,0,0,1,.94-3.51,9.81,9.81,0,0,1-5.47-.6c-.88-.39-1.86-.82-2-1.62-.25-1.11,1.13-2.65,3.59-3.71A9.34,9.34,0,0,1,2.19,43C1.6,42.51-.3,40.85.1,39.57s2.71-1.9,5.75-1.45c-.49-.2-4.31-1.77-4.94-5.29-.08-.39-.44-2.41.52-3.09,1.14-.82,3.81.52,6.87,3.38-.76-3.45.14-6.59,2.27-7.92,1.1-.69,3-1.17,3.95-.34s.17,2.32.21,5.95a21.7,21.7,0,0,0,1,6.73,26.13,26.13,0,0,0,2.92,5.57,51.71,51.71,0,0,0,3.54,5.23C26.15,53.45,28.53,54.53,28.08,56.18Z"/><rect class="cls-10" width="100" height="100"/></g></g></svg>