<?xml version="1.0" encoding="UTF-8"?><svg id="Lag_2" xmlns="http://www.w3.org/2000/svg" width="1112.94" height="106.5" xmlns:xlink="http://www.w3.org/1999/xlink" viewBox="0 0 1112.94 106.5"><defs><style>.cls-1{fill:#002e70;}.cls-1,.cls-2,.cls-3,.cls-4,.cls-5,.cls-6,.cls-7{stroke-width:0px;}.cls-8{clip-path:url(#clippath);}.cls-2{fill:none;}.cls-9{clip-path:url(#clippath-1);}.cls-10{clip-path:url(#clippath-4);}.cls-11{clip-path:url(#clippath-3);}.cls-12{clip-path:url(#clippath-2);}.cls-13{clip-path:url(#clippath-7);}.cls-14{clip-path:url(#clippath-8);}.cls-15{clip-path:url(#clippath-6);}.cls-16{clip-path:url(#clippath-5);}.cls-17{clip-path:url(#clippath-9);}.cls-18{filter:url(#drop-shadow-5);}.cls-19{filter:url(#drop-shadow-7);}.cls-20{filter:url(#drop-shadow-4);}.cls-21{filter:url(#drop-shadow-6);}.cls-22{filter:url(#drop-shadow-2);}.cls-23{filter:url(#drop-shadow-3);}.cls-24{filter:url(#drop-shadow-1);}.cls-3{fill:url(#Ikke-navngivet_forløb_2);}.cls-4{fill:#c9f0fe;}.cls-5{fill:#f7ae3b;}.cls-6{fill:#c4f1ed;}.cls-7{fill:#fff;}</style><clipPath id="clippath"><rect class="cls-2" x="984.63" y="8.71" width="35.77" height="35.77"/></clipPath><clipPath id="clippath-1"><rect class="cls-2" x="501.47" y=".91" width="51.19" height="51.19"/></clipPath><filter id="drop-shadow-1" filterUnits="userSpaceOnUse"><feOffset dx="1" dy="1"/><feGaussianBlur result="blur" stdDeviation="4"/><feFlood flood-color="#000" flood-opacity=".3"/><feComposite in2="blur" operator="in"/><feComposite in="SourceGraphic"/></filter><filter id="drop-shadow-2" filterUnits="userSpaceOnUse"><feOffset dx="2" dy="2"/><feGaussianBlur result="blur-2" stdDeviation="4"/><feFlood flood-color="#000" flood-opacity=".3"/><feComposite in2="blur-2" operator="in"/><feComposite in="SourceGraphic"/></filter><clipPath id="clippath-2"><rect class="cls-2" x="114.93" y="9.42" width="35.77" height="35.77"/></clipPath><filter id="drop-shadow-3" filterUnits="userSpaceOnUse"><feOffset dx="2" dy="2"/><feGaussianBlur result="blur-3" stdDeviation="4"/><feFlood flood-color="#000" flood-opacity=".3"/><feComposite in2="blur-3" operator="in"/><feComposite in="SourceGraphic"/></filter><clipPath id="clippath-3"><rect class="cls-2" x="226.76" y="9.55" width="35.77" height="35.77"/></clipPath><filter id="drop-shadow-4" filterUnits="userSpaceOnUse"><feOffset dx="2" dy="2"/><feGaussianBlur result="blur-4" stdDeviation="4"/><feFlood flood-color="#000" flood-opacity=".3"/><feComposite in2="blur-4" operator="in"/><feComposite in="SourceGraphic"/></filter><clipPath id="clippath-4"><rect class="cls-2" x="343.78" y="4.87" width="35.77" height="35.77"/></clipPath><clipPath id="clippath-5"><rect class="cls-2" x="751.62" y="9.07" width="35.77" height="35.77"/></clipPath><filter id="drop-shadow-5" filterUnits="userSpaceOnUse"><feOffset dx="2" dy="2"/><feGaussianBlur result="blur-5" stdDeviation="4"/><feFlood flood-color="#000" flood-opacity=".3"/><feComposite in2="blur-5" operator="in"/><feComposite in="SourceGraphic"/></filter><clipPath id="clippath-6"><rect class="cls-2" x="1068.94" y="65.49" width="44" height="41.01"/></clipPath><clipPath id="clippath-7"><rect class="cls-2" x="652.18" y="61.11" width="48" height="42"/></clipPath><clipPath id="clippath-8"><rect class="cls-2" x="568.76" y="60.11" width="40" height="43"/></clipPath><linearGradient id="Ikke-navngivet_forløb_2" x1="-109.09" y1="98.86" x2="-108.15" y2="98.86" gradientTransform="translate(4871 691.22) scale(40 -6)" gradientUnits="userSpaceOnUse"><stop offset="0" stop-color="#f7ae3b"/><stop offset="1" stop-color="#c9f0fe"/></linearGradient><filter id="drop-shadow-6" filterUnits="userSpaceOnUse"><feOffset dx="1" dy="1"/><feGaussianBlur result="blur-6" stdDeviation="4"/><feFlood flood-color="#000" flood-opacity=".3"/><feComposite in2="blur-6" operator="in"/><feComposite in="SourceGraphic"/></filter><filter id="drop-shadow-7" filterUnits="userSpaceOnUse"><feOffset dx="-2" dy="2"/><feGaussianBlur result="blur-7" stdDeviation="4"/><feFlood flood-color="#000" flood-opacity=".3"/><feComposite in2="blur-7" operator="in"/><feComposite in="SourceGraphic"/></filter><clipPath id="clippath-9"><rect class="cls-2" x="275.93" y="44.82" width="28.15" height="28.14"/></clipPath></defs><g id="Group_1747"><g class="cls-8"><g id="Group_1617"><path id="Path_1281" class="cls-5" d="M1000.89,13.59v-3.25c0-.9.73-1.63,1.63-1.63s1.63.73,1.63,1.63v3.25c0,.9-.73,1.63-1.63,1.63s-1.63-.73-1.63-1.63M1012.85,18.55l2.29-2.31c.65-.62.67-1.65.04-2.29-.62-.65-1.65-.67-2.29-.04-.02.01-.03.03-.04.04l-2.29,2.31c-.62.65-.6,1.67.04,2.29.63.6,1.62.6,2.25,0M1018.77,24.97h-3.25c-.9,0-1.63.73-1.63,1.63s.73,1.63,1.63,1.63h3.25c.9,0,1.63-.73,1.63-1.63s-.73-1.63-1.63-1.63M1002.51,37.98c-.9,0-1.62.73-1.63,1.63v3.25c0,.9.73,1.63,1.63,1.63s1.63-.73,1.63-1.63v-3.25c0-.9-.73-1.62-1.63-1.63M992.17,18.55l-2.31-2.29c-.63-.63-.63-1.66,0-2.29s1.66-.63,2.29,0l2.29,2.29c.63.63.64,1.65,0,2.28s-1.65.64-2.28,0M1010.56,34.65c-.63.63-.63,1.66,0,2.29,0,0,0,0,0,0l2.29,2.29c.65.62,1.67.6,2.29-.04.6-.63.6-1.62,0-2.25l-2.29-2.29c-.63-.63-1.66-.63-2.29,0,0,0,0,0,0,0M986.25,28.23h3.25c.9,0,1.63-.73,1.63-1.63s-.73-1.63-1.63-1.63h-3.25c-.9,0-1.63.73-1.63,1.63s.73,1.63,1.63,1.63M992.17,39.25l2.29-2.29c.65-.62.67-1.65.04-2.29-.62-.65-1.65-.67-2.29-.04-.02.01-.03.03-.04.04l-2.29,2.29c-.62.65-.6,1.67.04,2.29.63.6,1.62.6,2.25,0M1002.51,16.85c-5.39,0-9.75,4.37-9.75,9.75s4.37,9.76,9.76,9.76,9.75-4.37,9.75-9.76c0-5.39-4.37-9.75-9.76-9.76"/></g></g></g><g class="cls-9"><g id="Group_1617-2"><path id="Path_1281-2" class="cls-5" d="M524.73,7.89V3.24c-.03-1.28.99-2.35,2.28-2.37,1.28-.03,2.35.99,2.37,2.28,0,.03,0,.06,0,.1v4.65c.03,1.28-.99,2.35-2.28,2.37-1.28.03-2.35-.99-2.37-2.28,0-.03,0-.06,0-.1M541.86,14.99l3.28-3.3c.91-.91.91-2.37,0-3.28-.91-.91-2.37-.91-3.28,0h0l-3.28,3.3c-.91.91-.91,2.37,0,3.28.91.91,2.37.91,3.28,0M550.33,24.18h-4.65c-1.28-.03-2.35.99-2.37,2.28-.03,1.28.99,2.35,2.28,2.37.03,0,.06,0,.1,0h4.65c1.28-.03,2.3-1.09,2.28-2.37-.03-1.25-1.03-2.25-2.28-2.28M527.06,42.79c-1.28,0-2.32,1.04-2.33,2.33v4.65c.03,1.28,1.09,2.3,2.37,2.28,1.25-.03,2.25-1.03,2.28-2.28v-4.65c0-1.28-1.04-2.32-2.33-2.33M512.26,14.99l-3.3-3.28c-.91-.91-.91-2.37,0-3.28s2.37-.91,3.28,0h0l3.28,3.28c.85.95.78,2.41-.17,3.27-.87.79-2.2.79-3.08.01M538.58,38.02c-.91.9-.91,2.37,0,3.28,0,0,0,0,0,0l3.28,3.28c.91.91,2.37.91,3.28,0s.91-2.37,0-3.28l-3.28-3.28c-.9-.91-2.37-.91-3.28,0,0,0,0,0,0,0M503.79,28.83h4.65c1.28.03,2.35-.99,2.37-2.28.03-1.28-.99-2.35-2.28-2.37-.03,0-.06,0-.1,0h-4.65c-1.28-.03-2.35.99-2.37,2.28-.03,1.28.99,2.35,2.28,2.37.03,0,.06,0,.1,0M512.27,44.6l3.28-3.28c.92-.89.95-2.36.06-3.28s-2.36-.95-3.28-.06c-.02.02-.04.04-.06.06l-3.29,3.28c-.91.91-.9,2.38,0,3.28.91.91,2.38.9,3.28,0h0M527.07,12.54c-7.71,0-13.96,6.25-13.96,13.96s6.25,13.96,13.96,13.96,13.96-6.25,13.96-13.96h0c0-7.71-6.25-13.95-13.96-13.96"/></g></g><g id="Group_1738"><g id="Group_1723"><path id="Path_1316" class="cls-1" d="M992.29,47.96v1.68l-1.31-1.31-.57.57,1.88,1.88v.81h-.81l-1.88-1.88-.57.57,1.31,1.31h-1.68v.81h1.68l-1.31,1.31.57.57,1.88-1.88h.81v.81l-1.88,1.88.57.57,1.31-1.3v1.68h.81v-1.68l1.31,1.31.57-.57-1.88-1.88v-.81h.81l1.88,1.88.57-.57-1.31-1.31h1.68v-.81h-1.68l1.31-1.31-.57-.57-1.88,1.88h-.81v-.81l1.88-1.88-.57-.57-1.31,1.31v-1.68h-.81Z"/><path id="Path_1321" class="cls-1" d="M989.69,57.87v2.43l-1.89-1.89-.83.82,2.72,2.72v1.17h-1.17l-2.72-2.72-.82.83,1.89,1.89h-2.43v1.17h2.43l-1.89,1.89.82.83,2.72-2.72h1.17v1.17l-2.72,2.72.83.82,1.89-1.89v2.43h1.17v-2.43l1.89,1.89.83-.82-2.72-2.72v-1.17h1.17l2.72,2.72.82-.83-1.89-1.89h2.43v-1.17h-2.43l1.89-1.89-.82-.83-2.72,2.72h-1.17v-1.17l2.72-2.72-.83-.82-1.89,1.89v-2.43h-1.17Z"/><path id="Path_1315" class="cls-1" d="M1042.2,46.75v2.68l-2.08-2.08-.91.9,2.99,3v1.28h-1.28l-3-2.99-.9.91,2.08,2.08h-2.68v1.28h2.68l-2.08,2.08.91.91,2.99-3h1.28v1.29l-2.99,2.99.91.91,2.08-2.08v2.68h1.28v-2.68l2.08,2.08.91-.91-3-2.99v-1.29h1.29l2.99,2.99.91-.91-2.08-2.08h2.68v-1.28h-2.68l2.08-2.08-.91-.91-2.99,3h-1.29v-1.28l2.99-3-.91-.9-2.08,2.08v-2.68h-1.29Z"/><path id="Path_1325" class="cls-4" d="M1033.31,35.3c-1.44-8.73-9.68-14.64-18.41-13.2-4.8.79-8.98,3.72-11.37,7.96-8.04,1.05-13.71,8.42-12.65,16.46.96,7.32,7.2,12.79,14.58,12.78h26.73c6.64-.02,12.01-5.42,11.99-12.06-.02-6.18-4.72-11.34-10.87-11.94"/><path id="Path_1297" class="cls-1" d="M1024.57,42.17v4.01l-3.12-3.11-1.37,1.35,4.49,4.48v1.93h-1.93l-4.49-4.49-1.35,1.37,3.11,3.12h-4.01v1.93h4.01l-3.11,3.12,1.36,1.37,4.49-4.49h1.92v1.93l-4.49,4.49,1.37,1.36,3.12-3.12v4.01h1.93v-4.01l3.12,3.12,1.37-1.36-4.49-4.49v-1.93h1.93l4.49,4.49,1.36-1.37-3.12-3.12h4.01v-1.92h-4.01l3.12-3.12-1.36-1.37-4.49,4.49h-1.93v-1.93l4.49-4.49-1.37-1.35-3.12,3.11v-4.01h-1.93Z"/><path id="Path_1322" class="cls-1" d="M1000.86,48.64v2.43l-1.89-1.89-.83.82,2.72,2.72v1.17h-1.17l-2.72-2.72-.82.83,1.89,1.89h-2.43v1.17h2.43l-1.89,1.89.82.83,2.72-2.72h1.17v1.17l-2.72,2.72.83.82,1.89-1.89v2.43h1.17v-2.43l1.89,1.89.83-.82-2.72-2.72v-1.17h1.17l2.72,2.72.82-.83-1.89-1.89h2.43v-1.17h-2.43l1.89-1.89-.82-.83-2.72,2.72h-1.17v-1.17l2.72-2.72-.83-.82-1.89,1.89v-2.43h-1.17Z"/><path id="Path_1323" class="cls-1" d="M1011.48,58.26v1.68l-1.31-1.31-.57.57,1.88,1.88v.81h-.81l-1.88-1.88-.57.57,1.31,1.31h-1.68v.81h1.68l-1.31,1.31.57.57,1.88-1.88h.81v.81l-1.88,1.88.57.57,1.31-1.3v1.68h.81v-1.68l1.31,1.31.57-.57-1.88-1.88v-.81h.81l1.88,1.88.57-.57-1.31-1.31h1.68v-.81h-1.68l1.31-1.31-.57-.57-1.88,1.88h-.81v-.81l1.88-1.88-.57-.57-1.31,1.31v-1.68h-.81Z"/><path id="Path_1317" class="cls-1" d="M1033.65,70.52v1.04l-.81-.81-.35.35,1.16,1.16v.5h-.5l-1.16-1.16-.35.35.81.81h-1.04v.5h1.04l-.81.81.35.36,1.16-1.16h.5v.5l-1.16,1.16.35.35.81-.81v1.04h.5v-1.04l.81.81.35-.35-1.16-1.16v-.5h.5l1.16,1.16.35-.35-.81-.81h1.04v-.5h-1.04l.81-.81-.35-.35-1.16,1.16h-.5v-.5l1.16-1.16-.36-.35-.81.81v-1.04h-.5Z"/><path id="Path_1318" class="cls-1" d="M1023.71,63.84v1.04l-.81-.81-.35.35,1.16,1.16v.5h-.5l-1.16-1.16-.35.35.81.81h-1.04v.5h1.04l-.81.81.35.36,1.16-1.16h.5v.5l-1.16,1.16.35.35.81-.81v1.04h.5v-1.04l.81.81.35-.35-1.16-1.16v-.5h.5l1.16,1.16.35-.35-.81-.81h1.04v-.5h-1.04l.81-.81-.35-.35-1.16,1.16h-.5v-.5l1.16-1.16-.36-.35-.81.81v-1.04h-.5Z"/><path id="Path_1327" class="cls-1" d="M1013.67,68.82v1.04l-.81-.81-.35.35,1.16,1.16v.5h-.5l-1.16-1.16-.35.35.81.81h-1.04v.5h1.04l-.81.81.35.36,1.16-1.16h.5v.5l-1.16,1.16.35.35.81-.81v1.04h.5v-1.04l.81.81.35-.35-1.16-1.16v-.5h.5l1.16,1.16.35-.35-.81-.81h1.04v-.5h-1.04l.81-.81-.35-.35-1.16,1.16h-.5v-.5l1.16-1.16-.36-.35-.81.81v-1.04h-.5Z"/><path id="Path_1326" class="cls-1" d="M1003.68,67.67v1.04l-.81-.81-.35.35,1.16,1.16v.5h-.5l-1.16-1.16-.35.35.81.81h-1.04v.5h1.04l-.81.81.35.36,1.16-1.16h.5v.5l-1.16,1.16.35.35.81-.81v1.04h.5v-1.04l.81.81.35-.35-1.16-1.16v-.5h.5l1.16,1.16.35-.35-.81-.81h1.04v-.5h-1.04l.81-.81-.35-.35-1.16,1.16h-.5v-.5l1.16-1.16-.36-.35-.81.81v-1.04h-.5Z"/><path id="Path_1330" class="cls-1" d="M983.15,74.29v1.04l-.81-.81-.35.35,1.16,1.16v.5h-.5l-1.16-1.16-.35.35.81.81h-1.04v.5h1.04l-.81.81.35.36,1.16-1.16h.5v.5l-1.16,1.16.35.35.81-.81v1.04h.5v-1.04l.81.81.35-.35-1.16-1.16v-.5h.5l1.16,1.16.35-.35-.81-.81h1.04v-.5h-1.04l.81-.81-.35-.35-1.16,1.16h-.5v-.5l1.16-1.16-.36-.35-.81.81v-1.04h-.5Z"/><path id="Path_1329" class="cls-1" d="M995.86,72.64v1.04l-.81-.81-.35.35,1.16,1.16v.5h-.5l-1.16-1.16-.35.35.81.81h-1.04v.5h1.04l-.81.81.35.36,1.16-1.16h.5v.5l-1.16,1.16.35.35.81-.81v1.04h.5v-1.04l.81.81.35-.35-1.16-1.16v-.5h.5l1.16,1.16.35-.35-.81-.81h1.04v-.5h-1.04l.81-.81-.35-.35-1.16,1.16h-.5v-.5l1.16-1.16-.36-.35-.81.81v-1.04h-.5Z"/><path id="Path_1319" class="cls-1" d="M1041.47,64.84v1.04l-.81-.81-.35.35,1.16,1.16v.5h-.5l-1.16-1.16-.35.35.81.81h-1.04v.5h1.04l-.81.81.35.36,1.16-1.16h.5v.5l-1.16,1.16.35.35.81-.81v1.04h.5v-1.04l.81.81.35-.35-1.16-1.16v-.5h.5l1.16,1.16.35-.35-.81-.81h1.04v-.5h-1.04l.81-.81-.35-.35-1.16,1.16h-.5v-.5l1.16-1.16-.36-.35-.81.81v-1.04h-.5Z"/><path id="Path_1320" class="cls-1" d="M1021.25,73.29v.92l-.72-.72-.31.31,1.03,1.03v.44h-.44l-1.03-1.03-.31.31.72.72h-.92v.44h.92l-.72.72.31.31,1.03-1.03h.44v.44l-1.03,1.03.31.31.72-.72v.92h.44v-.92l.72.72.31-.31-1.03-1.03v-.44h.44l1.03,1.03.31-.31-.72-.72h.92v-.44h-.92l.72-.72-.31-.31-1.03,1.03h-.44v-.44l1.03-1.03-.31-.31-.72.72v-.92h-.44Z"/><path id="Path_1328" class="cls-1" d="M1007.63,75.83v.92l-.72-.72-.31.31,1.03,1.03v.44h-.44l-1.03-1.03-.31.31.72.72h-.92v.44h.92l-.72.72.31.31,1.03-1.03h.44v.44l-1.03,1.03.31.31.72-.72v.92h.44v-.92l.72.72.31-.31-1.03-1.03v-.44h.44l1.03,1.03.31-.31-.72-.72h.92v-.44h-.92l.72-.72-.31-.31-1.03,1.03h-.44v-.44l1.03-1.03-.31-.31-.72.72v-.92h-.44Z"/><path id="Path_1324" class="cls-1" d="M1032.22,61.42v.92l-.72-.72-.31.31,1.03,1.03v.44h-.44l-1.03-1.03-.31.31.72.72h-.92v.44h.92l-.72.72.31.31,1.03-1.03h.44v.44l-1.03,1.03.31.31.72-.72v.92h.44v-.92l.72.72.31-.31-1.03-1.03v-.44h.44l1.03,1.03.31-.31-.72-.72h.92v-.44h-.92l.72-.72-.31-.31-1.03,1.03h-.44v-.44l1.03-1.03-.31-.31-.72.72v-.92h-.44Z"/><g class="cls-24"><path id="Path_1341-2" class="cls-7" d="M1006.82,29.11c-1.44-8.73-9.68-14.64-18.41-13.2-4.8.79-8.98,3.72-11.37,7.96-8.04,1.05-13.71,8.42-12.65,16.46.96,7.32,7.2,12.79,14.58,12.78h26.73c6.64-.02,12.01-5.42,11.99-12.06-.02-6.18-4.72-11.34-10.87-11.94"/></g></g></g><g id="Group_1739"><g id="Group_1721"><g id="Group_1716"><path id="Path_1331" class="cls-1" d="M914.61,45.93c-3.32,2.83-4.98,5.28-4.98,7.34-.08,2.73,2.07,5.01,4.8,5.1.06,0,.12,0,.18,0,2.73.02,4.96-2.18,4.98-4.92,0-.06,0-.12,0-.18,0-2.07-1.66-4.51-4.98-7.34M912.01,53.4c.23,0,.42.16.46.39.17,1.1,1.16,1.88,2.27,1.79.26-.01.48.19.49.44.01.26-.19.48-.44.49-1.58.12-2.99-1-3.23-2.56-.04-.25.13-.49.39-.54.02,0,.05,0,.07,0"/></g></g><g id="Group_1718"><g id="Group_1716-2"><path id="Path_1331-2" class="cls-1" d="M911.45,70.19c-1.22,1.04-1.82,1.93-1.82,2.69-.03,1,.76,1.84,1.76,1.87.02,0,.04,0,.07,0,1,0,1.82-.8,1.82-1.8,0-.02,0-.04,0-.07,0-.76-.61-1.65-1.82-2.69M910.5,72.93c.08,0,.15.06.17.14.06.4.42.69.83.65.09,0,.17.07.18.16,0,.09-.07.17-.16.18-.58.05-1.1-.36-1.19-.94-.02-.09.05-.18.14-.2,0,0,.02,0,.03,0"/></g></g><g id="Group_1722"><g id="Group_1716-3"><path id="Path_1331-3" class="cls-1" d="M916.47,59.73c-1.22,1.04-1.82,1.93-1.82,2.69-.03,1,.76,1.84,1.76,1.87.02,0,.04,0,.07,0,1,0,1.82-.8,1.82-1.8,0-.02,0-.04,0-.07,0-.76-.61-1.65-1.82-2.69M915.52,62.46c.08,0,.15.06.17.14.06.4.42.69.83.65.09,0,.17.07.18.16,0,.09-.07.17-.16.18-.58.05-1.1-.36-1.19-.94-.02-.09.05-.18.14-.2,0,0,.02,0,.03,0"/></g></g><path id="Path_1342" class="cls-1" d="M907.38,28.15c-1.44-8.73-9.68-14.64-18.41-13.2-4.8.79-8.98,3.72-11.37,7.96-8.04,1.05-13.71,8.42-12.65,16.46.96,7.32,7.2,12.79,14.58,12.78h26.73c6.64-.02,12.01-5.42,11.99-12.06-.02-6.18-4.72-11.34-10.87-11.94"/><g class="cls-22"><path id="Path_1343-2" class="cls-7" d="M904.86,30.3c-1.44-8.73-9.68-14.64-18.41-13.2-4.8.79-8.98,3.72-11.37,7.96-8.04,1.05-13.71,8.42-12.65,16.46.96,7.32,7.2,12.79,14.58,12.78h26.73c6.64-.02,12.01-5.42,11.99-12.06-.02-6.18-4.72-11.34-10.87-11.94"/></g><g id="Group_1719"><g id="Group_1716-4"><path id="Path_1331-4" class="cls-1" d="M899.74,48.45c-2.78,2.37-4.17,4.42-4.17,6.14-.07,2.29,1.73,4.2,4.01,4.27.05,0,.1,0,.15,0,2.29.01,4.15-1.83,4.17-4.12,0-.05,0-.1,0-.15,0-1.73-1.39-3.78-4.17-6.14M897.57,54.7c.19,0,.35.14.39.32.14.92.97,1.58,1.9,1.5.22-.01.4.15.42.36s-.15.4-.36.42c0,0-.01,0-.02,0-1.33.1-2.51-.83-2.71-2.15-.03-.21.11-.41.32-.45.02,0,.04,0,.06,0"/></g></g><g id="Group_1717"><g id="Group_1716-5"><path id="Path_1331-5" class="cls-1" d="M906.94,60.49c-2.02,1.72-3.03,3.22-3.03,4.47-.05,1.66,1.26,3.06,2.92,3.11.04,0,.07,0,.11,0,1.67.01,3.02-1.33,3.03-3,0-.04,0-.08,0-.11,0-1.26-1.01-2.75-3.03-4.47M905.36,65.04c.14,0,.26.1.28.24.1.67.7,1.15,1.38,1.09.16-.01.29.1.31.26.01.16-.1.29-.26.31,0,0-.01,0-.02,0-.96.07-1.82-.61-1.97-1.56-.03-.15.08-.3.23-.33.02,0,.03,0,.05,0"/></g></g><g id="Group_1720"><g id="Group_1716-6"><path id="Path_1331-6" class="cls-1" d="M892.54,58.86c-2.02,1.72-3.03,3.22-3.03,4.47-.05,1.66,1.26,3.06,2.92,3.11.04,0,.07,0,.11,0,1.67.01,3.02-1.33,3.03-3,0-.04,0-.08,0-.11,0-1.26-1.01-2.75-3.03-4.47M890.96,63.41c.14,0,.26.1.28.24.1.67.7,1.15,1.38,1.09.16-.01.29.1.31.26.01.16-.1.29-.26.31,0,0-.01,0-.02,0-.96.07-1.82-.61-1.97-1.56-.03-.15.08-.3.23-.33.02,0,.03,0,.05,0"/></g></g></g><g id="Group_1740"><g id="Group_1734"><g class="cls-12"><g id="Group_1617-3"><path id="Path_1281-3" class="cls-5" d="M131.19,14.3v-3.25c0-.9.73-1.63,1.63-1.63s1.63.73,1.63,1.63v3.25c0,.9-.73,1.63-1.63,1.63s-1.63-.73-1.63-1.63M143.15,19.26l2.29-2.31c.65-.62.67-1.65.04-2.29-.62-.65-1.65-.67-2.29-.04-.02.01-.03.03-.04.04l-2.29,2.31c-.62.65-.6,1.67.04,2.29.63.6,1.62.6,2.25,0M149.07,25.68h-3.25c-.9,0-1.63.73-1.63,1.63s.73,1.63,1.63,1.63h3.25c.9,0,1.63-.73,1.63-1.63s-.73-1.63-1.63-1.63M132.81,38.69c-.9,0-1.62.73-1.63,1.63v3.25c0,.9.73,1.63,1.63,1.63s1.63-.73,1.63-1.63v-3.25c0-.9-.73-1.62-1.63-1.63M122.47,19.26l-2.31-2.29c-.63-.63-.63-1.66,0-2.29s1.66-.63,2.29,0l2.29,2.29c.63.63.64,1.65,0,2.28s-1.65.64-2.28,0M140.86,35.36c-.63.63-.63,1.66,0,2.29,0,0,0,0,0,0l2.29,2.29c.65.62,1.67.6,2.29-.04.6-.63.6-1.62,0-2.25l-2.29-2.29c-.63-.63-1.66-.63-2.29,0,0,0,0,0,0,0M116.56,28.93h3.25c.9,0,1.63-.73,1.63-1.63s-.73-1.63-1.63-1.63h-3.25c-.9,0-1.63.73-1.63,1.63s.73,1.63,1.63,1.63M122.47,39.96l2.29-2.29c.65-.62.67-1.65.04-2.29-.62-.65-1.65-.67-2.29-.04-.02.01-.03.03-.04.04l-2.29,2.29c-.62.65-.6,1.67.04,2.29.63.6,1.62.6,2.25,0M132.81,17.56c-5.39,0-9.75,4.37-9.75,9.75s4.37,9.76,9.76,9.76,9.75-4.37,9.75-9.76c0-5.39-4.37-9.75-9.76-9.76"/></g></g></g><path id="Path_1344" class="cls-4" d="M125.6,24.69c-1.44-8.73-9.68-14.64-18.41-13.2-4.8.79-8.98,3.72-11.37,7.96-8.04,1.05-13.71,8.42-12.65,16.46.96,7.32,7.2,12.79,14.58,12.78h26.73c6.64-.02,12.01-5.42,11.99-12.06-.02-6.18-4.72-11.34-10.87-11.94"/><g id="Group_1728"><g id="Group_1727"><g id="Group_1716-2"><path id="Path_1331-2" class="cls-1" d="M83.55,59.35c-1.22,1.04-1.82,1.93-1.82,2.69-.03,1,.76,1.84,1.76,1.87.02,0,.04,0,.07,0,1,0,1.82-.8,1.82-1.8,0-.02,0-.04,0-.07,0-.76-.61-1.65-1.82-2.69M82.6,62.09c.08,0,.15.06.17.14.06.4.42.69.83.65.09,0,.17.07.18.16,0,.09-.07.17-.16.18-.58.05-1.1-.36-1.19-.94-.02-.09.05-.18.14-.2,0,0,.02,0,.03,0"/></g></g><g id="Group_1725"><g id="Group_1716-2-2"><path id="Path_1331-2-2" class="cls-1" d="M88.57,48.89c-1.22,1.04-1.82,1.93-1.82,2.69-.03,1,.76,1.84,1.76,1.87.02,0,.04,0,.07,0,1,0,1.82-.8,1.82-1.8,0-.02,0-.04,0-.07,0-.76-.61-1.65-1.82-2.69M87.62,51.62c.08,0,.15.06.17.14.06.4.42.69.83.65.09,0,.17.07.18.16,0,.09-.07.17-.16.18-.58.05-1.1-.36-1.19-.94-.02-.09.05-.18.14-.2,0,0,.02,0,.03,0"/></g></g><g id="Group_1726"><g id="Group_1716-3-2"><path id="Path_1331-3-2" class="cls-1" d="M71.84,37.61c-2.78,2.37-4.17,4.42-4.17,6.14-.07,2.29,1.73,4.2,4.01,4.27.05,0,.1,0,.15,0,2.29.01,4.15-1.83,4.17-4.12,0-.05,0-.1,0-.15,0-1.73-1.39-3.78-4.17-6.14M69.67,43.86c.19,0,.35.14.39.32.14.92.97,1.58,1.9,1.5.22-.01.4.15.42.36s-.15.4-.36.42c0,0-.01,0-.02,0-1.33.1-2.51-.83-2.71-2.15-.03-.21.11-.41.32-.45.02,0,.04,0,.06,0"/></g></g><g id="Group_1724"><g id="Group_1716-4-2"><path id="Path_1331-4-2" class="cls-1" d="M79.04,49.66c-2.02,1.72-3.03,3.22-3.03,4.47-.05,1.66,1.26,3.06,2.92,3.11.04,0,.07,0,.11,0,1.67.01,3.02-1.33,3.03-3,0-.04,0-.08,0-.11,0-1.26-1.01-2.75-3.03-4.47M77.46,54.2c.14,0,.26.1.28.24.1.67.7,1.15,1.38,1.09.16-.01.29.1.31.26.01.16-.1.29-.26.31,0,0-.01,0-.02,0-.96.07-1.82-.61-1.97-1.56-.03-.15.08-.3.23-.33.02,0,.03,0,.05,0"/></g></g></g><g id="Group_1736"><g id="Group_1727-2"><g id="Group_1716-5-2"><path id="Path_1331-5-2" class="cls-1" d="M119.45,59.35c-1.22,1.04-1.82,1.93-1.82,2.69-.03,1,.76,1.84,1.76,1.87.02,0,.04,0,.07,0,1,0,1.82-.8,1.82-1.8,0-.02,0-.04,0-.07,0-.76-.61-1.65-1.82-2.69M118.5,62.09c.08,0,.15.06.17.14.06.4.42.69.83.65.09,0,.17.07.18.16,0,.09-.07.17-.16.18-.58.05-1.1-.36-1.19-.94-.02-.09.05-.18.14-.2,0,0,.02,0,.03,0"/></g></g><g id="Group_1725-2"><g id="Group_1716-6-2"><path id="Path_1331-6-2" class="cls-1" d="M124.47,48.89c-1.22,1.04-1.82,1.93-1.82,2.69-.03,1,.76,1.84,1.76,1.87.02,0,.04,0,.07,0,1,0,1.82-.8,1.82-1.8,0-.02,0-.04,0-.07,0-.76-.61-1.65-1.82-2.69M123.52,51.62c.08,0,.15.06.17.14.06.4.42.69.83.65.09,0,.17.07.18.16,0,.09-.07.17-.16.18-.58.05-1.1-.36-1.19-.94-.02-.09.05-.18.14-.2,0,0,.02,0,.03,0"/></g></g><g id="Group_1724-2"><g id="Group_1716-7"><path id="Path_1331-7" class="cls-1" d="M114.94,49.66c-2.02,1.72-3.03,3.22-3.03,4.47-.05,1.66,1.26,3.06,2.92,3.11.04,0,.07,0,.11,0,1.67.01,3.02-1.33,3.03-3,0-.04,0-.08,0-.11,0-1.26-1.01-2.75-3.03-4.47M113.36,54.2c.14,0,.26.1.28.24.1.67.7,1.15,1.38,1.09.16-.01.29.1.31.26.01.16-.1.29-.26.31,0,0-.01,0-.02,0-.96.07-1.82-.61-1.97-1.56-.03-.15.08-.3.23-.33.02,0,.03,0,.05,0"/></g></g></g><path id="Path_1345-2" class="cls-1" d="M81.44,13.42c-1.44-8.73-9.68-14.64-18.41-13.2-4.8.79-8.98,3.72-11.37,7.96-8.04,1.05-13.71,8.42-12.65,16.46.96,7.32,7.2,12.79,14.58,12.78h26.73c6.64-.02,12.01-5.42,11.99-12.06-.02-6.18-4.72-11.34-10.87-11.94"/><path id="Path_1336" class="cls-1" d="M11.92,49.3v1.68l-1.31-1.31-.57.57,1.88,1.88v.81h-.81l-1.88-1.88-.57.57,1.31,1.31h-1.68v.81h1.68l-1.31,1.31.57.57,1.88-1.88h.81v.81l-1.88,1.88.57.57,1.31-1.3v1.68h.81v-1.68l1.31,1.31.57-.57-1.88-1.88v-.81h.81l1.88,1.88.57-.57-1.31-1.31h1.68v-.81h-1.68l1.31-1.31-.57-.57-1.88,1.88h-.81v-.81l1.88-1.88-.57-.57-1.31,1.31v-1.68h-.81Z"/><g class="cls-23"><path id="Path_1332-2" class="cls-7" d="M42.91,25.3c-1.44-8.73-9.68-14.64-18.41-13.2-4.8.79-8.98,3.72-11.37,7.96C5.09,21.11-.58,28.48.48,36.52c.96,7.32,7.2,12.79,14.58,12.78h26.73c6.64-.02,12.01-5.42,11.99-12.06-.02-6.18-4.72-11.34-10.87-11.94"/></g><path id="Path_1335" class="cls-1" d="M25.54,39.32v3.16l-2.45-2.46-1.07,1.07,3.53,3.53v1.51h-1.51l-3.53-3.53-1.07,1.08,2.45,2.45h-3.15v1.51h3.15l-2.45,2.45,1.07,1.08,3.53-3.53h1.51v1.51l-3.53,3.53,1.07,1.07,2.45-2.45v3.15h1.51v-3.15l2.45,2.45,1.07-1.07-3.53-3.53v-1.51h1.51l3.53,3.53,1.07-1.07-2.45-2.45h3.15v-1.51h-3.15l2.45-2.45-1.07-1.08-3.53,3.53h-1.51v-1.51l3.53-3.53-1.08-1.07-2.45,2.46v-3.16h-1.51Z"/><path id="Path_1337" class="cls-1" d="M21.75,55.66v1.04l-.81-.81-.35.35,1.16,1.16v.5h-.5l-1.16-1.16-.35.35.81.81h-1.04v.5h1.04l-.81.81.35.36,1.16-1.16h.5v.5l-1.16,1.16.35.35.81-.81v1.04h.5v-1.04l.81.81.35-.35-1.16-1.16v-.5h.5l1.16,1.16.35-.35-.81-.81h1.04v-.5h-1.04l.81-.81-.35-.35-1.16,1.16h-.5v-.5l1.16-1.16-.36-.35-.81.81v-1.04h-.5Z"/><path id="Path_1338" class="cls-1" d="M38.66,51.65v.92l-.72-.72-.31.31,1.03,1.03v.44h-.44l-1.03-1.03-.31.31.72.72h-.92v.44h.92l-.72.72.31.31,1.03-1.03h.44v.44l-1.03,1.03.31.31.72-.72v.92h.44v-.92l.72.72.31-.31-1.03-1.03v-.44h.44l1.03,1.03.31-.31-.72-.72h.92v-.44h-.92l.72-.72-.31-.31-1.03,1.03h-.44v-.44l1.03-1.03-.31-.31-.72.72v-.92h-.44Z"/><path id="Path_1339" class="cls-1" d="M4.37,58.3v.92l-.72-.72-.31.31,1.03,1.03v.44h-.44l-1.03-1.03-.31.31.72.72h-.92v.44h.92l-.72.72.31.31,1.03-1.03h.44v.44l-1.03,1.03.31.31.72-.72v.92h.44v-.92l.72.72.31-.31-1.03-1.03v-.44h.44l1.03,1.03.31-.31-.72-.72h.92v-.44h-.92l.72-.72-.31-.31-1.03,1.03h-.44v-.44l1.03-1.03-.31-.31-.72.72v-.92h-.44Z"/><path id="Path_1340" class="cls-1" d="M1.99,50.76v.92l-.72-.72-.31.31,1.03,1.03v.44h-.44l-1.03-1.03-.31.31.72.72h-.92v.44h.92l-.72.72.31.31,1.03-1.03h.44v.44l-1.03,1.03.31.31.72-.72v.92h.44v-.92l.72.72.31-.31-1.03-1.03v-.44h.44l1.03,1.03.31-.31-.72-.72h.92v-.44h-.92l.72-.72-.31-.31-1.03,1.03h-.44v-.44l1.03-1.03-.31-.31-.72.72v-.92h-.44Z"/></g><path id="Path_1346" class="cls-4" d="M243.07,26.5c-1.44-8.73-9.68-14.64-18.41-13.2-4.8.79-8.98,3.72-11.37,7.96-8.04,1.05-13.71,8.42-12.65,16.46.96,7.32,7.2,12.79,14.58,12.78h26.73c6.64-.02,12.01-5.42,11.99-12.06-.02-6.18-4.72-11.34-10.87-11.94"/><g id="Group_1729"><g class="cls-11"><g id="Group_1617-4"><path id="Path_1281-4" class="cls-5" d="M243.02,14.43v-3.25c0-.9.73-1.63,1.63-1.63s1.63.73,1.63,1.63v3.25c0,.9-.73,1.63-1.63,1.63s-1.63-.73-1.63-1.63M254.99,19.39l2.29-2.31c.65-.62.67-1.65.04-2.29-.62-.65-1.65-.67-2.29-.04-.02.01-.03.03-.04.04l-2.29,2.31c-.62.65-.6,1.67.04,2.29.63.6,1.62.6,2.25,0M260.91,25.81h-3.25c-.9,0-1.63.73-1.63,1.63s.73,1.63,1.63,1.63h3.25c.9,0,1.63-.73,1.63-1.63s-.73-1.63-1.63-1.63M244.65,38.82c-.9,0-1.62.73-1.63,1.63v3.25c0,.9.73,1.63,1.63,1.63s1.63-.73,1.63-1.63v-3.25c0-.9-.73-1.62-1.63-1.63M234.31,19.39l-2.31-2.29c-.63-.63-.63-1.66,0-2.29s1.66-.63,2.29,0l2.29,2.29c.63.63.64,1.65,0,2.28s-1.65.64-2.28,0M252.7,35.49c-.63.63-.63,1.66,0,2.29,0,0,0,0,0,0l2.29,2.29c.65.62,1.67.6,2.29-.04.6-.63.6-1.62,0-2.25l-2.29-2.29c-.63-.63-1.66-.63-2.29,0,0,0,0,0,0,0M228.39,29.06h3.25c.9,0,1.63-.73,1.63-1.63s-.73-1.63-1.63-1.63h-3.25c-.9,0-1.63.73-1.63,1.63s.73,1.63,1.63,1.63M234.31,40.09l2.29-2.29c.65-.62.67-1.65.04-2.29-.62-.65-1.65-.67-2.29-.04-.02.01-.03.03-.04.04l-2.29,2.29c-.62.65-.6,1.67.04,2.29.63.6,1.62.6,2.25,0M244.65,17.69c-5.39,0-9.75,4.37-9.75,9.75s4.37,9.76,9.76,9.76,9.75-4.37,9.75-9.76c0-5.39-4.37-9.75-9.76-9.76"/></g></g></g><g id="Group_1737"><g id="Group_1727-2"><g id="Group_1716-3"><path id="Path_1331-3" class="cls-1" d="M208.3,56.58c-1.22,1.04-1.82,1.93-1.82,2.69-.03,1,.76,1.84,1.76,1.87.02,0,.04,0,.07,0,1,0,1.82-.8,1.82-1.8,0-.02,0-.04,0-.07,0-.76-.61-1.65-1.82-2.69M207.35,59.31c.08,0,.15.06.17.14.06.4.42.69.83.65.09,0,.17.07.18.16,0,.09-.07.17-.16.18-.58.05-1.1-.36-1.19-.94-.02-.09.05-.18.14-.2,0,0,.02,0,.03,0"/></g></g><g id="Group_1724-2"><g id="Group_1716-2-3"><path id="Path_1331-2-3" class="cls-1" d="M203.79,46.88c-2.02,1.72-3.03,3.22-3.03,4.47-.05,1.66,1.26,3.06,2.92,3.11.04,0,.07,0,.11,0,1.67.01,3.02-1.33,3.03-3,0-.04,0-.08,0-.11,0-1.26-1.01-2.75-3.03-4.47M202.21,51.43c.14,0,.26.1.28.24.1.67.7,1.15,1.38,1.09.16-.01.29.1.31.26.01.16-.1.29-.26.31,0,0-.01,0-.02,0-.96.07-1.82-.61-1.97-1.56-.03-.15.08-.3.23-.33.02,0,.03,0,.05,0"/></g></g></g><g class="cls-20"><path id="Path_1349-2" class="cls-7" d="M393.77,29.57c-1.44-8.73-9.68-14.64-18.41-13.2-4.8.79-8.98,3.72-11.37,7.96-8.04,1.05-13.71,8.42-12.65,16.46.96,7.32,7.2,12.79,14.58,12.78h26.73c6.64-.02,12.01-5.42,11.99-12.06-.02-6.18-4.72-11.34-10.87-11.94"/></g><g id="Group_1732"><g class="cls-10"><g id="Group_1617-5"><path id="Path_1281-5" class="cls-5" d="M360.04,9.75v-3.25c0-.9.73-1.63,1.63-1.63s1.63.73,1.63,1.63v3.25c0,.9-.73,1.63-1.63,1.63s-1.63-.73-1.63-1.63M372,14.71l2.29-2.31c.65-.62.67-1.65.04-2.29-.62-.65-1.65-.67-2.29-.04-.02.01-.03.03-.04.04l-2.29,2.31c-.62.65-.6,1.67.04,2.29.63.6,1.62.6,2.25,0M377.92,21.13h-3.25c-.9,0-1.63.73-1.63,1.63s.73,1.63,1.63,1.63h3.25c.9,0,1.63-.73,1.63-1.63s-.73-1.63-1.63-1.63M361.66,34.14c-.9,0-1.62.73-1.63,1.63v3.25c0,.9.73,1.63,1.63,1.63s1.63-.73,1.63-1.63v-3.25c0-.9-.73-1.62-1.63-1.63M351.32,14.71l-2.31-2.29c-.63-.63-.63-1.66,0-2.29s1.66-.63,2.29,0l2.29,2.29c.63.63.64,1.65,0,2.28s-1.65.64-2.28,0M369.71,30.81c-.63.63-.63,1.66,0,2.29,0,0,0,0,0,0l2.29,2.29c.65.62,1.67.6,2.29-.04.6-.63.6-1.62,0-2.25l-2.29-2.29c-.63-.63-1.66-.63-2.29,0,0,0,0,0,0,0M345.4,24.38h3.25c.9,0,1.63-.73,1.63-1.63s-.73-1.63-1.63-1.63h-3.25c-.9,0-1.63.73-1.63,1.63s.73,1.63,1.63,1.63M351.32,35.4l2.29-2.29c.65-.62.67-1.65.04-2.29-.62-.65-1.65-.67-2.29-.04-.02.01-.03.03-.04.04l-2.29,2.29c-.62.65-.6,1.67.04,2.29.63.6,1.62.6,2.25,0M361.66,13c-5.39,0-9.75,4.37-9.75,9.75s4.37,9.76,9.76,9.76,9.75-4.37,9.75-9.76c0-5.39-4.37-9.75-9.76-9.76"/></g></g></g><g id="Group_1733"><g class="cls-16"><g id="Group_1617-6"><path id="Path_1281-6" class="cls-5" d="M767.87,13.94v-3.25c0-.9.73-1.63,1.63-1.63s1.63.73,1.63,1.63v3.25c0,.9-.73,1.63-1.63,1.63s-1.63-.73-1.63-1.63M779.84,18.9l2.29-2.31c.65-.62.67-1.65.04-2.29-.62-.65-1.65-.67-2.29-.04-.02.01-.03.03-.04.04l-2.29,2.31c-.62.65-.6,1.67.04,2.29.63.6,1.62.6,2.25,0M785.76,25.32h-3.25c-.9,0-1.63.73-1.63,1.63s.73,1.63,1.63,1.63h3.25c.9,0,1.63-.73,1.63-1.63s-.73-1.63-1.63-1.63M769.5,38.33c-.9,0-1.62.73-1.63,1.63v3.25c0,.9.73,1.63,1.63,1.63s1.63-.73,1.63-1.63v-3.25c0-.9-.73-1.62-1.63-1.63M759.16,18.9l-2.31-2.29c-.63-.63-.63-1.66,0-2.29s1.66-.63,2.29,0l2.29,2.29c.63.63.64,1.65,0,2.28s-1.65.64-2.28,0M777.55,35c-.63.63-.63,1.66,0,2.29,0,0,0,0,0,0l2.29,2.29c.65.62,1.67.6,2.29-.04.6-.63.6-1.62,0-2.25l-2.29-2.29c-.63-.63-1.66-.63-2.29,0,0,0,0,0,0,0M753.24,28.58h3.25c.9,0,1.63-.73,1.63-1.63s-.73-1.63-1.63-1.63h-3.25c-.9,0-1.63.73-1.63,1.63s.73,1.63,1.63,1.63M759.16,39.6l2.29-2.29c.65-.62.67-1.65.04-2.29-.62-.65-1.65-.67-2.29-.04-.02.01-.03.03-.04.04l-2.29,2.29c-.62.65-.6,1.67.04,2.29.63.6,1.62.6,2.25,0M769.5,17.2c-5.39,0-9.75,4.37-9.75,9.75s4.37,9.76,9.76,9.76,9.75-4.37,9.75-9.76c0-5.39-4.37-9.75-9.76-9.76"/></g></g></g><g class="cls-18"><path id="Path_1351-2" class="cls-7" d="M798.35,29.87c-1.44-8.73-9.68-14.64-18.41-13.2-4.8.79-8.98,3.72-11.37,7.96-8.04,1.05-13.71,8.42-12.65,16.46.96,7.32,7.2,12.79,14.58,12.78h26.73c6.64-.02,12.01-5.42,11.99-12.06-.02-6.18-4.72-11.34-10.87-11.94"/></g><g id="Group_1745"><g class="cls-15"><g id="Group_1625"><path id="Path_1287" class="cls-1" d="M1094.94,69.49c0,2.21-1.79,4-4,4s-4-1.79-4-4,1.79-4,4-4c2.21,0,3.99,1.79,4,4M1112.54,100.97c-1.37,4.2-5.88,6.5-10.08,5.14l-33.52-10.9.92-2.86,7.86,2.56.92-2.86-7.84-2.56.92-2.86,3.22,1.06v-8.2l10.94-4.7c1.81-.81,3.94,0,4.75,1.82.36.81.41,1.73.13,2.58l-2.1,6.48,4.28-.68c1.78-.29,3.53.64,4.28,2.28l4.16,9.02,3.86,1.26-.92,2.86-6.64-2.16-.94,2.84,6.64,2.16c2.63.85,5.45-.59,6.3-3.22s-.59-5.45-3.22-6.3l.92-2.86c4.21,1.36,6.52,5.88,5.16,10.09,0,0,0,0,0,0M1078.94,88.99l2.02.66c-.46-.86-.55-1.87-.24-2.8l2.06-6.36-3.84,1.64v6.86ZM1094.82,97.31l-13.32-4.32-.92,2.86,13.32,4.32.92-2.86ZM1096.2,94.59l-2.36-5.12-7.94,1.78,10.3,3.34Z"/></g></g></g><g id="Group_1746"><g id="Group_1709"><g id="Group_1661"><g class="cls-13"><g id="Group_1629"><path id="Path_1290" class="cls-1" d="M676.18,68.11c-2.21,0-4,1.79-4,4s1.79,4,4,4,4-1.79,4-4c0-2.21-1.79-3.99-4-4M700.18,92.11c-2.55,1.11-5.17,2.03-7.86,2.74-1.62-.49-3.05-1.45-4.14-2.74-1.48,1.81-3.66,2.91-6,3-2.34-.09-4.52-1.19-6-3-1.48,1.81-3.66,2.91-6,3-2.34-.09-4.52-1.19-6-3-1.1,1.28-2.53,2.23-4.14,2.74-2.69-.71-5.31-1.63-7.86-2.74,4.57-1.95,9.36-3.35,14.26-4.16l2.7-8.34c.61-1.89,2.64-2.93,4.53-2.32,0,0,0,0,0,0,.18.06.37.13.54.22l4.94,2.6,5.68-3,3.3-7.42-1.02-2.64,2.66-5.94,6.4,2.86-2.66,5.94-2.62,1-7.44,16.68c5.75.73,11.38,2.25,16.72,4.52M682.22,83.03l-3.04,1.6-3.5-1.84-1.42,4.34c.64,0,1.28-.02,1.92-.02,1.42,0,2.8.06,4.14.16l1.9-4.24Z"/></g></g></g><g id="Group_1674"><g class="cls-14"><g id="Group_1631"><path id="Path_1291" class="cls-1" d="M598.76,60.11c-2.21,0-4,1.79-4,4s1.79,4,4,4,4-1.79,4-4c0-2.21-1.79-3.99-4-4M593.62,74.07l-4.5,3.04,7.64,6v7.68c1.06.76,2.06,1.56,2.98,2.34-1.37,1.23-3.14,1.93-4.98,1.98-2.34-.09-4.52-1.19-6-3-1.48,1.81-3.66,2.91-6,3-.65,0-1.3-.1-1.92-.28-5.7-3.92-10.08-8.28-10.08-11.16,0-2.06,2.02-2.56,3.7-2.56,2.54.14,5.04.7,7.4,1.66l-1.06-6.2c-.22-1.39.39-2.79,1.56-3.58l4.3-2.9-4-.74-5.64,3.86-2.26-3.3,7-4.8,11.1,2.06c1.03.21,1.93.86,2.44,1.78l1.76,3.1c1.78,3.13,5.1,5.06,8.7,5.06v4c-5.01,0-9.64-2.69-12.14-7.04M585.36,79.31l.88,5.3c1.84.84,4.96,2.54,6.52,3.5v-3l-7.4-5.8Z"/></g></g></g><g id="Group_1677"><path id="Path_1303" class="cls-4" d="M580.28,101.07c-2.09,0-4.15-.52-6-1.5-3.75,2-8.25,2-12,0-3.75,2-8.25,2-12,0-1.85.98-3.91,1.5-6,1.5h-2v-4h2c2.16-.03,4.26-.73,6-2,3.58,2.6,8.42,2.6,12,0,3.58,2.6,8.42,2.6,12,0,1.74,1.27,3.84,1.97,6,2h2v4h-2Z"/><path id="Path_1305" class="cls-4" d="M655.28,101.07c-2.09,0-4.15-.52-6-1.5-3.75,2-8.25,2-12,0-3.75,2-8.25,2-12,0-1.85.98-3.91,1.5-6,1.5h-2v-4h2c2.16-.03,4.26-.73,6-2,3.58,2.6,8.42,2.6,12,0,3.58,2.6,8.42,2.6,12,0,1.74,1.27,3.84,1.97,6,2h2v4h-2Z"/><path id="Path_1307" class="cls-4" d="M730.28,101.07c-2.09,0-4.15-.52-6-1.5-3.75,2-8.25,2-12,0-3.75,2-8.25,2-12,0-1.85.98-3.91,1.5-6,1.5h-2v-4h2c2.16-.03,4.26-.73,6-2,3.58,2.6,8.42,2.6,12,0,3.58,2.6,8.42,2.6,12,0,1.74,1.27,3.84,1.97,6,2h2v4h-2Z"/><path id="Path_1304" class="cls-4" d="M618.28,101.07c-2.09,0-4.15-.52-6-1.5-3.75,2-8.25,2-12,0-3.75,2-8.25,2-12,0-1.85.98-3.91,1.5-6,1.5h-2v-4h2c2.16-.03,4.26-.73,6-2,3.58,2.6,8.42,2.6,12,0,3.58,2.6,8.42,2.6,12,0,1.74,1.27,3.84,1.97,6,2h2v4h-2Z"/><path id="Path_1306" class="cls-4" d="M693.28,101.07c-2.09,0-4.15-.52-6-1.5-3.75,2-8.25,2-12,0-3.75,2-8.25,2-12,0-1.85.98-3.91,1.5-6,1.5h-2v-4h2c2.16-.03,4.26-.73,6-2,3.58,2.6,8.42,2.6,12,0,3.58,2.6,8.42,2.6,12,0,1.74,1.27,3.84,1.97,6,2h2v4h-2Z"/><path id="Path_1308" class="cls-4" d="M768.28,101.07c-2.09,0-4.15-.52-6-1.5-3.75,2-8.25,2-12,0-3.75,2-8.25,2-12,0-1.85.98-3.91,1.5-6,1.5h-2v-4h2c2.16-.03,4.26-.73,6-2,3.58,2.6,8.42,2.6,12,0,3.58,2.6,8.42,2.6,12,0,1.74,1.27,3.84,1.97,6,2h2v4h-2Z"/></g></g><g id="Group_1743"><g id="Group_1735"><path id="Path_1292" class="cls-1" d="M471.21,86.73l2.86-2.86,12.88,12.89-2.85,2.85-12.89-12.88ZM479.8,75.27l5.72-5.72c-7.89-7.9-20.69-7.92-28.6-.04,8.1-2.59,16.97-.36,22.88,5.76M456.86,69.57c-7.88,7.91-7.86,20.71.04,28.6l5.72-5.72c-6.12-5.91-8.35-14.78-5.76-22.88M456.9,69.53l-.02.02c-.76,6.02,2.34,13.76,8.6,20.04l11.46-11.46c-6.26-6.26-14.02-9.36-20.04-8.6"/></g></g><path id="Path_1354" class="cls-3" d="M544.28,101.07c-2.09,0-4.15-.52-6-1.5-3.75,2-8.25,2-12,0-3.75,2-8.25,2-12,0-1.85.98-3.91,1.5-6,1.5h-2v-4h2c2.16-.03,4.26-.73,6-2,3.58,2.6,8.42,2.6,12,0,3.58,2.6,8.42,2.6,12,0,1.74,1.27,3.84,1.97,6,2h2v4h-2Z"/><path id="Path_1355" class="cls-5" d="M505.28,101.07c-2.09,0-4.15-.52-6-1.5-3.75,2-8.25,2-12,0-3.75,2-8.25,2-12,0-1.85.98-3.91,1.5-6,1.5h-2v-4h2c2.16-.03,4.26-.73,6-2,3.58,2.6,8.42,2.6,12,0,3.58,2.6,8.42,2.6,12,0,1.74,1.27,3.84,1.97,6,2h2v4h-2Z"/></g><path id="Path_1352" class="cls-6" d="M665.83,21.54c-.95-5.79-6.42-9.72-12.22-8.76-3.19.53-5.96,2.47-7.54,5.29-5.33.71-9.08,5.62-8.37,10.95.65,4.83,4.77,8.44,9.64,8.45h17.74c4.41,0,7.99-3.56,7.99-7.97,0-4.13-3.14-7.58-7.25-7.96"/><g class="cls-21"><path id="Path_1353-2" class="cls-4" d="M648.83,17.54c-.95-5.79-6.42-9.72-12.22-8.76-3.19.53-5.96,2.47-7.54,5.29-5.33.71-9.08,5.62-8.37,10.95.65,4.83,4.77,8.44,9.64,8.45h17.74c4.41,0,7.99-3.56,7.99-7.97,0-4.13-3.14-7.58-7.25-7.96"/></g><g class="cls-19"><path id="Path_1347-2" class="cls-7" d="M244.66,30.01c-1.44-8.73-9.68-14.64-18.41-13.2-4.8.79-8.98,3.72-11.37,7.96-8.04,1.05-13.71,8.42-12.65,16.46.96,7.32,7.2,12.79,14.58,12.78h26.73c6.64-.02,12.01-5.42,11.99-12.06-.02-6.18-4.72-11.34-10.87-11.94"/></g><g class="cls-17"><g id="Group_1635"><path id="Path_1293" class="cls-5" d="M303.99,48.87c-.27-.75-.98-1.25-1.77-1.24h-1.52l-.44-1.37c-.23-1-1.22-1.63-2.22-1.4-.7.16-1.25.71-1.4,1.42l-.44,1.35h-1.51c-.8-.01-1.51.49-1.77,1.24-.27.79.06,1.66.79,2.08l1.22.73-.56,1.74c-.32.82-.06,1.75.63,2.28.69.52,1.65.48,2.31-.08l1.14-.98,1.14.98c.65.57,1.61.6,2.31.08.7-.53.96-1.46.63-2.28l-.55-1.74,1.22-.73c.71-.43,1.04-1.29.79-2.08M298.45,51.85c-.78,0-1.41-.63-1.41-1.41s.63-1.41,1.41-1.41c.78,0,1.41.63,1.41,1.41h0c0,.78-.63,1.4-1.41,1.41"/><path id="Path_1294" class="cls-1" d="M292.1,56.79c-.6-.59-1.31-1.03-2.1-1.31v-2.22h-1.4v1.94c-.15-.01-.32-.04-.48-.04-1.49,0-2.92.59-3.98,1.65-.22.23-.42.48-.6.75l-1.97-.75c-2.19-.77-4.6.37-5.39,2.56-.64,1.79,0,3.78,1.58,4.85-.86,2.95.83,6.04,3.78,6.91,1.02.3,2.11.3,3.13,0,.78,1.14,2.07,1.82,3.45,1.83.48,0,.96-.08,1.42-.24,2.2-.78,3.35-3.2,2.56-5.4,0,0,0,0,0-.01l-.73-1.93c.26-.18.51-.38.75-.6,1.17-1.17,1.76-2.81,1.6-4.46h1.93v-1.41h-2.23c-.27-.79-.71-1.51-1.29-2.11M279.69,62.11c-.35-.13-.64-.38-.8-.72-.17-.33-.19-.72-.06-1.07.25-.72,1.04-1.11,1.77-.86l4.45,1.67c-1.62.84-3.7,1.56-5.36.97M288.58,70.06c-.35.13-.74.11-1.07-.06-.34-.16-.59-.45-.72-.8-.59-1.66.13-3.73.98-5.35l1.66,4.4c.26.73-.13,1.54-.86,1.8M290.29,62.55l-.86-2.27s-.01-.03-.03-.04l-.08-.17c-.03-.05-.06-.11-.1-.15l-.13-.13-.13-.13s-.1-.08-.15-.1c-.05-.04-.11-.06-.17-.08-.01,0-.03-.01-.04-.03l-2.25-.84c.5-.41,1.12-.64,1.77-.65.75,0,1.46.3,1.98.83,1.02,1.02,1.09,2.64.18,3.76"/></g></g></svg>