<svg xmlns="http://www.w3.org/2000/svg" xmlns:xlink="http://www.w3.org/1999/xlink" viewBox="0 0 35 33.77"><defs><style>.cls-1{fill:none;}.cls-2{fill:url(#Ikke-navngivet_forløb_7);}.cls-3{fill:#fff;}.cls-4{clip-path:url(#clip-path);}.cls-5{fill:#e1dad2;}.cls-6{fill:#c8bcb2;}.cls-7{fill:#171717;}.cls-8{fill:#ffa83e;}.cls-9{fill:#feec89;}.cls-10{fill:#002e70;}</style><radialGradient id="Ikke-navngivet_forløb_7" cx="17.63" cy="16.89" r="16.89" gradientUnits="userSpaceOnUse"><stop offset="0"/><stop offset="1" stop-opacity="0"/></radialGradient><clipPath id="clip-path"><circle class="cls-1" cx="17.64" cy="16.89" r="12.68"/></clipPath></defs><g id="Lag_2" data-name="Lag 2"><g id="Lag_1-2" data-name="Lag 1"><circle class="cls-2" cx="17.63" cy="16.89" r="16.89"/><circle class="cls-3" cx="17.63" cy="16.83" r="14.45"/><g class="cls-4"><path class="cls-5" d="M28.63,22.79c-.1-1.87-.43-2.09-.34-3.64,0-.44.09-1.23.06-2.38,0-.28,0-.7-.08-1.22a8.62,8.62,0,0,0-.42-2.37,7.86,7.86,0,0,0-2.48-3.46,8.94,8.94,0,0,0-2.09-1.23,13.39,13.39,0,0,0-3.13-1,13.82,13.82,0,0,0-3.29-.23,9.32,9.32,0,0,0-2.4.36,7.75,7.75,0,0,0-3.59,2.28,12.09,12.09,0,0,0-1.28,2,17.89,17.89,0,0,0-1.34,2.76c-.22.59-.36,1.06-.54,1.69a20.87,20.87,0,0,0-.55,2.08,37.06,37.06,0,0,0-.48,3.75c0,.4,0,.52,0,.59a8.91,8.91,0,0,0,.31,4.08,7.43,7.43,0,0,0,2.47,3.22,10.51,10.51,0,0,0,4.09,1.66,17.32,17.32,0,0,0,3.94.55,17.07,17.07,0,0,0,4.33-.55,10.25,10.25,0,0,0,4.08-1.66,7.43,7.43,0,0,0,2.48-3.22A9.19,9.19,0,0,0,28.63,22.79Z"/><path class="cls-6" d="M16,27.09a2.17,2.17,0,0,1,1.82-.92,2.2,2.2,0,0,1,1.55.85,2.11,2.11,0,0,0-1.57,1.31,2,2,0,0,0-.63-.82A2.09,2.09,0,0,0,16,27.09Z"/><path class="cls-6" d="M18.34,25.6a2,2,0,0,1,3.37-.07,2.08,2.08,0,0,0-.94.44,2.21,2.21,0,0,0-.63.87,2,2,0,0,0-.63-.82A2,2,0,0,0,18.34,25.6Z"/><path class="cls-6" d="M13.56,25.6a2.17,2.17,0,0,1,1.82-.92,2.14,2.14,0,0,1,1.55.85A2.08,2.08,0,0,0,16,26a2.21,2.21,0,0,0-.63.87,2,2,0,0,0-.63-.82A2,2,0,0,0,13.56,25.6Z"/><path class="cls-6" d="M16,23.9a2.06,2.06,0,0,1,3.37-.07,2.16,2.16,0,0,0-1.57,1.31A2,2,0,0,0,16,23.9Z"/><path class="cls-6" d="M11.17,23.9A2.17,2.17,0,0,1,13,23a2.14,2.14,0,0,1,1.55.84A2.16,2.16,0,0,0,13,25.14a2,2,0,0,0-.63-.82A2.09,2.09,0,0,0,11.17,23.9Z"/><path class="cls-6" d="M20.72,23.9A2.22,2.22,0,0,1,22.55,23a2.16,2.16,0,0,1,1.55.84,2.16,2.16,0,0,0-1.57,1.31,2,2,0,0,0-1.81-1.24Z"/><circle class="cls-6" cx="14.86" cy="14.66" r="5.33"/><circle class="cls-6" cx="22.36" cy="16.11" r="5.33"/><circle class="cls-3" cx="14.86" cy="14.66" r="2.8"/><circle class="cls-7" cx="14.86" cy="14.66" r="1.82"/><circle class="cls-3" cx="15.6" cy="14.24" r="0.41"/><circle class="cls-3" cx="22.36" cy="16.11" r="2.78"/><circle class="cls-7" cx="22.36" cy="16.11" r="1.81"/><circle class="cls-3" cx="23.1" cy="15.7" r="0.41"/><path class="cls-5" d="M10.92,9.89l2-3.75,1.88,2.34Z"/><path class="cls-5" d="M27.79,13.17,27.36,9l-2.61,1.46Z"/><ellipse class="cls-6" cx="21.68" cy="19.63" rx="1.33" ry="2.39" transform="translate(-1.72 37.16) rotate(-79)"/><ellipse class="cls-6" cx="14.18" cy="18.17" rx="1.33" ry="2.39" transform="translate(-6.36 28.62) rotate(-79)"/><path class="cls-8" d="M17.56,21.23c-.83-.16-1.55-2.31-.69-3.07a1.8,1.8,0,0,1,2.44.48C19.84,19.66,18.39,21.38,17.56,21.23Z"/><path class="cls-9" d="M19.11,18.87a.77.77,0,0,0-.29-.35c-.1-.08-.23-.14-.25-.12s.05.07.11.18a1.18,1.18,0,0,1,.14.36,1.3,1.3,0,0,1,.07.29,2.16,2.16,0,0,1,0,.69,1.52,1.52,0,0,0,.17-.36A1,1,0,0,0,19.11,18.87Z"/></g><path class="cls-10" d="M26.27,22a1.43,1.43,0,0,0-.78,1.53,1.48,1.48,0,0,0,1.39,1.09,1.72,1.72,0,0,0,.18,1.93,1.7,1.7,0,0,0,1.33.55,2.22,2.22,0,0,0,.9,1.74,2.18,2.18,0,0,0,1.48.36,1.41,1.41,0,0,0,1.29,1.53,1.27,1.27,0,0,0,1-.82,1.32,1.32,0,0,0,.55,1.3,1,1,0,0,0,1.06,0c.77-.59.14-2.84-.58-4.22a8,8,0,0,0-2.75-3c-.32-.2-.13,0-2-.94S26.79,21.75,26.27,22Z"/><path class="cls-10" d="M9.82,19.91c-.17.62-1.31.73-1.37.74a2.46,2.46,0,0,1-2-1,5.09,5.09,0,0,1-.85.22,2.38,2.38,0,0,1-1,0,1.22,1.22,0,0,1-.93-.55,1.15,1.15,0,0,1,.33-1.23A3.33,3.33,0,0,1,2,17.92c-.3-.13-.65-.28-.71-.56s.4-.93,1.26-1.31a3.22,3.22,0,0,1-1.8-.75c-.2-.18-.87-.76-.73-1.21s1-.66,2-.51A2.8,2.8,0,0,1,.3,11.73c0-.14-.15-.84.18-1.08s1.34.18,2.41,1.18a2.55,2.55,0,0,1,.8-2.77c.38-.24,1-.41,1.38-.12s.06.81.07,2.08a7.86,7.86,0,0,0,.36,2.36,9.51,9.51,0,0,0,1,1.95,17.54,17.54,0,0,0,1.24,1.83C9.14,19,10,19.33,9.82,19.91Z"/></g></g></svg>