<?xml version="1.0" encoding="utf-8"?>
<!-- Generator: Adobe Illustrator 25.4.1, SVG Export Plug-In . SVG Version: 6.00 Build 0)  -->
<svg version="1.1" id="Layer_1" xmlns="http://www.w3.org/2000/svg" xmlns:xlink="http://www.w3.org/1999/xlink" x="0px" y="0px"
	 viewBox="0 0 556 332" style="enable-background:new 0 0 556 332;" xml:space="preserve">
<style type="text/css">
	.st0{fill:#F5F5F5;}
	.st1{fill:#FFFFFF;}
	.st2{fill:#323232;}
	.st3{opacity:0.4;fill:#CAF0FE;enable-background:new    ;}
	.st4{fill:#0F2E70;}
</style>
<g id="VIDEO_PLAYER" transform="translate(4.5)">
	<rect id="Rectangle_298" x="3.5" y="6.3" class="st0" width="535.8" height="281.4"/>
	<rect id="Rectangle_298-2" x="3.5" y="297.1" width="535.8" height="28.9"/>
	<path id="Path_366" class="st1" d="M19.5,304.4v12.6l9.9-6.3L19.5,304.4z"/>
	<path id="Path_375" class="st1" d="M481.2,312.5h-1.8v4.5h4.5v-1.8h-2.7L481.2,312.5z M479.4,308.9h1.8v-2.7h2.7v-1.8h-4.5V308.9z
		 M490.1,315.1h-2.7v1.8h4.5v-4.5h-1.8V315.1z M487.4,304.4v1.8h2.7v2.7h1.8v-4.5H487.4z"/>
	<path id="Path_376" class="st1" d="M526.1,304.4h-12.6c-0.8,0-1.4,0.6-1.4,1.4v2.1h1.4v-2.1h12.6v9.8h-4.9v1.4h4.9
		c0.8,0,1.4-0.6,1.4-1.4v-9.8C527.5,305,526.9,304.4,526.1,304.4z M512.1,314.8v2.1h2.1C514.2,315.8,513.3,314.8,512.1,314.8
		C512.1,314.8,512.1,314.8,512.1,314.8z M512.1,312.1v1.4c1.9,0,3.5,1.6,3.5,3.5h1.4C517,314.2,514.8,312.1,512.1,312.1
		C512.1,312.1,512.1,312.1,512.1,312.1L512.1,312.1z M512.1,309.3v1.4c3.5,0,6.3,2.8,6.3,6.3h1.4
		C519.8,312.7,516.4,309.3,512.1,309.3C512.1,309.3,512.1,309.3,512.1,309.3L512.1,309.3z"/>
	<path id="Path_377" d="M271.4,128.1c-19.3,0-34.9,15.6-34.9,34.9s15.6,34.9,34.9,34.9c19.3,0,34.9-15.6,34.9-34.9l0,0
		C306.2,143.7,290.6,128.1,271.4,128.1z M264.4,178.7v-31.4l20.9,15.7L264.4,178.7z"/>
	<g id="Iconfont_speakers" transform="translate(52.348 309.374)">
		<path id="Path_150" class="st1" d="M1.6-0.9v4.3h2.8L7.9,7V-4.5L4.4-0.9H1.6z M11,1.3c0-1.2-0.7-2.3-1.7-2.9v5.8
			C10.3,3.6,11,2.5,11,1.3L11,1.3z M9.3-5v1.5c2.7,0.9,4.1,3.7,3.2,6.4C12,4.4,10.8,5.6,9.3,6.1v1.5c3.5-0.9,5.6-4.4,4.7-7.9
			C13.4-2.6,11.6-4.4,9.3-5z"/>
	</g>
	<rect id="Rectangle_300" x="3.5" y="287.5" class="st2" width="535.8" height="9.6"/>
	<rect id="Rectangle_301" x="11.2" y="287.5" class="st3" width="334.3" height="9.6"/>
	<g transform="matrix(1, 0, 0, 1, -4.5, 0)">
		<circle id="Ellipse_47-2" class="st4" cx="15.7" cy="292.3" r="7.7"/>
	</g>
</g>
</svg>
