<?xml version="1.0" encoding="UTF-8"?>
<svg xmlns="http://www.w3.org/2000/svg" version="1.1" viewBox="0 0 620 110">
  <defs>
    <style>
      .cls-1 {
        fill: #0a2e70;
      }
    </style>
  </defs>
  <!-- Generator: Adobe Illustrator 28.7.1, SVG Export Plug-In . SVG Version: 1.2.0 Build 142)  -->
  <g>
    <g id="Lag_1">
      <g>
        <path class="cls-1" d="M20.4,63.9h6.1v-21h-6.1v21ZM32.6,68.3h6.1v-29.7h-6.1v29.7ZM8.2,59.5h6.1v-12.2h-6.1v12.2ZM44.8,71.7h6.1v-36.5h-6.1v36.5ZM57,47.4v12.2h6.1v-12.2h-6.1Z"/>
        <path class="cls-1" d="M81.3,71.7h6.1v-36.5h-6.1v36.5ZM93.5,83.9h6.1V23h-6.1v60.9ZM69.1,67.3h6.1v-27.8h-6.1v27.8ZM105.7,71.7h6.1v-36.5h-6.1v36.5ZM117.8,47.4v12.2h6.1v-12.2h-6.1Z"/>
        <path class="cls-1" d="M142.2,91.2h6.1V15.7h-6.1v75.5ZM154.4,83.9h6.1V23h-6.1v60.9ZM130,79h6.1V27.9h-6.1v51.1ZM166.6,71.7h6.1v-36.5h-6.1v36.5ZM178.7,37.6v31.7h6.1v-31.7h-6.1Z"/>
        <path class="cls-1" d="M203.1,71.7h6.1v-36.5h-6.1v36.5ZM215.3,100.5h6.1V6.5h-6.1v94ZM190.9,67.3h6.1v-27.8h-6.1v27.8ZM227.4,91.2h6.1V15.7h-6.1v75.5ZM239.6,21.1v64.8h6.1V21.1h-6.1Z"/>
        <path class="cls-1" d="M264,71.7h6.1v-36.5h-6.1v36.5ZM276.2,83.9h6.1V23h-6.1v60.9ZM251.8,79h6.1V27.9h-6.1v51.1ZM288.3,71.7h6.1v-36.5h-6.1v36.5ZM300.5,47.4v12.2h6.1v-12.2h-6.1Z"/>
        <path class="cls-1" d="M324.9,71.7h6.1v-36.5h-6.1v36.5ZM337,76.1h6.1V30.8h-6.1v45.3ZM312.7,55.6h6.1v-4.4h-6.1v4.4ZM349.2,81.5h6.1V25.4h-6.1v56ZM361.4,18.1v70.6h6.1V18.1h-6.1Z"/>
        <path class="cls-1" d="M385.8,71.7h6.1v-36.5h-6.1v36.5ZM397.9,83.9h6.1V23h-6.1v60.9ZM373.6,79h6.1V27.9h-6.1v51.1ZM410.1,71.7h6.1v-36.5h-6.1v36.5ZM422.3,39.6v27.8h6.1v-27.8h-6.1Z"/>
        <path class="cls-1" d="M446.6,71.7h6.1v-36.5h-6.1v36.5ZM458.8,83.9h6.1V23h-6.1v60.9ZM434.5,59.5h6.1v-12.2h-6.1v12.2ZM471,71.7h6.1v-36.5h-6.1v36.5ZM483.2,47.4v12.2h6.1v-12.2h-6.1Z"/>
        <path class="cls-1" d="M507.5,71.7h6.1v-36.5h-6.1v36.5ZM519.7,83.9h6.1V23h-6.1v60.9ZM495.4,59.5h6.1v-12.2h-6.1v12.2ZM531.9,71.7h6.1v-36.5h-6.1v36.5ZM544.1,47.4v12.2h6.1v-12.2h-6.1Z"/>
        <path class="cls-1" d="M568.4,81.5h6.1V25.4h-6.1v56ZM580.6,76.1h6.1V30.8h-6.1v45.3ZM556.3,77.1h6.1V29.8h-6.1v47.2ZM592.8,71.7h6.1v-36.5h-6.1v36.5ZM605,47.4v12.2h6.1v-12.2h-6.1Z"/>
      </g>
    </g>
  </g>
</svg>