<?xml version="1.0" encoding="UTF-8"?>
<svg id="Lag_1" data-name="Lag 1" xmlns="http://www.w3.org/2000/svg" xmlns:xlink="http://www.w3.org/1999/xlink" version="1.1" viewBox="0 0 302.9 81.3">
  <defs>
    <style>
      .cls-1 {
        clip-path: url(#clippath);
      }

      .cls-2 {
        fill: none;
      }

      .cls-2, .cls-3 {
        stroke-width: 0px;
      }

      .cls-4 {
        clip-path: url(#clippath-1);
      }

      .cls-5 {
        clip-path: url(#clippath-2);
      }

      .cls-3 {
        fill: #f7ae3b;
      }
    </style>
    <clipPath id="clippath">
      <rect class="cls-2" x="7.6" y="25.8" width="40" height="40"/>
    </clipPath>
    <clipPath id="clippath-1">
      <rect class="cls-2" x="185.3" y="33.4" width="40" height="40"/>
    </clipPath>
    <clipPath id="clippath-2">
      <rect class="cls-2" x="95" y="7.9" width="35.8" height="35.8"/>
    </clipPath>
  </defs>
  <g id="Group_1768" data-name="Group 1768">
    <g id="Group_1684" data-name="Group 1684">
      <path id="Path_1309" data-name="Path 1309" class="cls-3" d="M289.2,19.3c2.1,0,4.2.6,6.1,1.6-5.8,3.3-7.8,10.8-4.5,16.6,1.1,1.9,2.6,3.4,4.5,4.5-5.8,3.4-13.2,1.4-16.6-4.4-3.4-5.8-1.4-13.2,4.4-16.6,1.8-1.1,3.9-1.6,6.1-1.6"/>
    </g>
  </g>
  <g id="Group_1769" data-name="Group 1769">
    <g class="cls-1">
      <g id="Group_1617" data-name="Group 1617">
        <path id="Path_1281" data-name="Path 1281" class="cls-3" d="M25.8,31.2v-3.6c0-1,.8-1.8,1.8-1.8,1,0,1.8.8,1.8,1.8v3.6c0,1-.8,1.8-1.8,1.8-1,0-1.8-.8-1.8-1.8M39.2,36.8l2.6-2.6c.7-.7.7-1.9,0-2.6-.7-.7-1.9-.7-2.6,0l-2.6,2.6c-.7.7-.7,1.9,0,2.6.7.7,1.9.7,2.6,0M45.8,44h-3.6c-1,0-1.8.8-1.8,1.8,0,1,.8,1.8,1.8,1.8h3.6c1,0,1.8-.8,1.8-1.8,0-1-.8-1.8-1.8-1.8h0M27.6,58.5c-1,0-1.8.8-1.8,1.8v3.6c0,1,.8,1.8,1.8,1.8,1,0,1.8-.8,1.8-1.8h0v-3.6c0-1-.8-1.8-1.8-1.8M16.1,36.8l-2.6-2.6c-.7-.7-.7-1.9,0-2.6.7-.7,1.8-.7,2.5,0l2.6,2.6c.7.7.7,1.8,0,2.6-.7.7-1.8.7-2.6,0M36.6,54.8c-.7.7-.7,1.9,0,2.6,0,0,0,0,0,0l2.6,2.6c.7.7,1.9.7,2.6,0s.7-1.9,0-2.6l-2.6-2.6c-.7-.7-1.9-.7-2.6,0,0,0,0,0,0,0M9.5,47.6h3.6c1,0,1.8-.8,1.8-1.8,0-1-.8-1.8-1.8-1.8h-3.6c-1,0-1.8.8-1.8,1.8,0,1,.8,1.8,1.8,1.8M16.1,59.9l2.6-2.6c.7-.7.7-1.9,0-2.6-.7-.7-1.9-.7-2.6,0l-2.6,2.6c-.7.7-.7,1.9,0,2.6.7.7,1.9.7,2.6,0M27.6,34.9c-6,0-10.9,4.9-10.9,10.9s4.9,10.9,10.9,10.9,10.9-4.9,10.9-10.9c0-6-4.9-10.9-10.9-10.9"/>
      </g>
    </g>
  </g>
  <g id="Group_1773" data-name="Group 1773">
    <g class="cls-4">
      <g id="Group_1617-2" data-name="Group 1617-2">
        <path id="Path_1281-2" data-name="Path 1281-2" class="cls-3" d="M203.4,38.8v-3.6c0-1,.8-1.8,1.8-1.8,1,0,1.8.8,1.8,1.8v3.6c0,1-.8,1.8-1.8,1.8-1,0-1.8-.8-1.8-1.8M216.8,44.4l2.6-2.6c.7-.7.7-1.9,0-2.6-.7-.7-1.9-.7-2.6,0l-2.6,2.6c-.7.7-.7,1.9,0,2.6.7.7,1.9.7,2.6,0M223.4,51.5h-3.6c-1,0-1.8.8-1.8,1.8,0,1,.8,1.8,1.8,1.8h3.6c1,0,1.8-.8,1.8-1.8,0-1-.8-1.8-1.8-1.8h0M205.3,66.1c-1,0-1.8.8-1.8,1.8v3.6c0,1,.8,1.8,1.8,1.8,1,0,1.8-.8,1.8-1.8h0v-3.6c0-1-.8-1.8-1.8-1.8M193.7,44.4l-2.6-2.6c-.7-.7-.7-1.9,0-2.6.7-.7,1.8-.7,2.5,0l2.6,2.6c.7.7.7,1.8,0,2.6-.7.7-1.8.7-2.6,0M214.3,62.4c-.7.7-.7,1.9,0,2.6,0,0,0,0,0,0l2.6,2.6c.7.7,1.9.7,2.6,0s.7-1.9,0-2.6l-2.6-2.6c-.7-.7-1.9-.7-2.6,0,0,0,0,0,0,0M187.1,55.2h3.6c1,0,1.8-.8,1.8-1.8,0-1-.8-1.8-1.8-1.8h-3.6c-1,0-1.8.8-1.8,1.8,0,1,.8,1.8,1.8,1.8M193.7,67.5l2.6-2.6c.7-.7.7-1.9,0-2.6-.7-.7-1.9-.7-2.6,0l-2.6,2.6c-.7.7-.7,1.9,0,2.6.7.7,1.9.7,2.6,0M205.3,42.5c-6,0-10.9,4.9-10.9,10.9s4.9,10.9,10.9,10.9,10.9-4.9,10.9-10.9c0-6-4.9-10.9-10.9-10.9"/>
      </g>
    </g>
  </g>
  <g class="cls-5">
    <g id="Group_1772" data-name="Group 1772">
      <path id="Path_1363" data-name="Path 1363" class="cls-3" d="M111.3,12.8v-3.3c0-.9.7-1.6,1.6-1.6s1.6.7,1.6,1.6v3.3c0,.9-.7,1.6-1.6,1.6s-1.6-.7-1.6-1.6M123.2,17.7l2.3-2.3c.6-.6.7-1.6,0-2.3-.6-.6-1.6-.7-2.3,0,0,0,0,0,0,0l-2.3,2.3c-.6.6-.6,1.7,0,2.3.6.6,1.6.6,2.2,0M129.1,24.2h-3.3c-.9,0-1.6.7-1.6,1.6s.7,1.6,1.6,1.6h3.3c.9,0,1.6-.7,1.6-1.6s-.7-1.6-1.6-1.6M112.9,37.2c-.9,0-1.6.7-1.6,1.6v3.3c0,.9.7,1.6,1.6,1.6s1.6-.7,1.6-1.6v-3.3c0-.9-.7-1.6-1.6-1.6M102.5,17.7l-2.3-2.3c-.6-.6-.6-1.7,0-2.3s1.7-.6,2.3,0l2.3,2.3c.6.6.6,1.7,0,2.3s-1.7.6-2.3,0M120.9,33.8c-.6.6-.6,1.7,0,2.3,0,0,0,0,0,0l2.3,2.3c.6.6,1.7.6,2.3,0,.6-.6.6-1.6,0-2.2l-2.3-2.3c-.6-.6-1.7-.6-2.3,0,0,0,0,0,0,0M96.6,27.4h3.3c.9,0,1.6-.7,1.6-1.6s-.7-1.6-1.6-1.6h-3.3c-.9,0-1.6.7-1.6,1.6s.7,1.6,1.6,1.6M102.5,38.4l2.3-2.3c.6-.6.7-1.6,0-2.3-.6-.6-1.6-.7-2.3,0,0,0,0,0,0,0l-2.3,2.3c-.6.6-.6,1.7,0,2.3.6.6,1.6.6,2.2,0M112.9,16c-5.4,0-9.8,4.4-9.8,9.8s4.4,9.8,9.8,9.8,9.8-4.4,9.8-9.8c0-5.4-4.4-9.8-9.8-9.8"/>
    </g>
  </g>
</svg>