<?xml version="1.0" encoding="UTF-8"?>
<svg xmlns="http://www.w3.org/2000/svg" version="1.1" viewBox="0 0 20 20">
  <!-- Generator: Adobe Illustrator 28.7.1, SVG Export Plug-In . SVG Version: 1.2.0 Build 142)  -->
  <g>
    <g id="Diverse_kopi" display="none">
      <g>
        <path d="M17.2,1H2.8c-.9,0-1.8.8-1.8,1.8v2.7c0,.6.4,1.2.9,1.5v10.1c0,1,1,1.8,1.8,1.8h12.6c.8,0,1.8-.8,1.8-1.8V7c.5-.3.9-.9.9-1.5v-2.7c0-1-.9-1.8-1.8-1.8ZM16.3,17.2H3.7V7.3h12.6v9.9ZM17.2,5.5H2.8v-2.7h14.4v2.7Z" fill="#fff"/>
        <rect x="7.3" y="10" width="5.4" height="1.8" fill="#fff"/>
      </g>
    </g>
  </g>
</svg>