<?xml version="1.0" encoding="UTF-8"?>
<svg xmlns="http://www.w3.org/2000/svg" version="1.1" viewBox="0 0 20 20">
  <!-- Generator: Adobe Illustrator 28.7.1, SVG Export Plug-In . SVG Version: 1.2.0 Build 142)  -->
  <g>
    <g id="Underholdning_kopi">
      <g>
        <path d="M1.1,13.5c0,2.7,2.2,4.9,4.9,4.9s4.9-2.2,4.9-4.9v-5.8H1.1v5.8ZM6,15.3c-1.2,0-2.2-.6-2.2-1.3h4.5c0,.7-1,1.3-2.2,1.3ZM8.2,10.4c.5,0,.9.4.9.9s-.4.9-.9.9-.9-.4-.9-.9.4-.9.9-.9ZM3.8,10.4c.5,0,.9.4.9.9s-.4.9-.9.9-.9-.4-.9-.9.4-.9.9-.9Z" fill="#c4f1ed"/>
        <path d="M9.1,1.5v5.4h2.7v2.2c0-.7,1-1.3,2.2-1.3s2.2.6,2.2,1.3h-4.5v2.6c.7.3,1.4.5,2.2.5,2.7,0,4.9-2.2,4.9-4.9V1.5h-9.9ZM11.8,6c-.5,0-.9-.4-.9-.9s.4-.9.9-.9.9.4.9.9-.4.9-.9.9ZM16.3,6c-.5,0-.9-.4-.9-.9s.4-.9.9-.9.9.4.9.9-.4.9-.9.9Z" fill="#c4f1ed"/>
      </g>
    </g>
  </g>
</svg>