<?xml version="1.0" encoding="UTF-8"?>
<svg xmlns="http://www.w3.org/2000/svg" version="1.1" viewBox="0 0 20 20">
  <!-- Generator: Adobe Illustrator 28.7.1, SVG Export Plug-In . SVG Version: 1.2.0 Build 142)  -->
  <g>
    <g id="Born">
      <circle cx="12" cy="9.1" r="1" fill="#fff"/>
      <circle cx="8" cy="9.1" r="1" fill="#fff"/>
      <path d="M19,9.8c-.2-1.2-1.1-2.2-2.3-2.6-.4-.9-1-1.7-1.8-2.4-1.3-1.2-3-1.8-4.9-1.8s-3.6.7-4.9,1.8c-.8.7-1.4,1.5-1.8,2.4-1.2.4-2.1,1.3-2.3,2.6,0,.2,0,.4,0,.5s0,.4,0,.5c.2,1.2,1.1,2.2,2.3,2.6.4.9,1,1.7,1.8,2.4,1.3,1.2,3,1.9,4.9,1.9s3.6-.7,4.9-1.9c.7-.7,1.3-1.5,1.8-2.4,1.2-.4,2.1-1.3,2.3-2.6,0-.2,0-.4,0-.5s0-.4,0-.5ZM15.7,12c0,0-.2,0-.2,0-.2.5-.4,1.1-.7,1.5-1,1.6-2.8,2.6-4.8,2.6s-3.8-1-4.8-2.6c-.3-.5-.5-1-.7-1.5,0,0-.2,0-.2,0-.9,0-1.6-.7-1.6-1.6s.7-1.6,1.6-1.6.2,0,.2,0c.2-.5.4-1.1.7-1.5,1-1.6,2.8-2.6,4.8-2.6s3.8,1,4.8,2.6c.3.5.5,1,.7,1.5,0,0,.2,0,.2,0,.9,0,1.6.7,1.6,1.6s-.7,1.6-1.6,1.6ZM10,14.5c1.6,0,3.1-1,3.7-2.5h-7.4c.6,1.4,2,2.5,3.7,2.5Z" fill="#fff"/>
    </g>
  </g>
</svg>