<?xml version="1.0" encoding="UTF-8"?>
<svg xmlns="http://www.w3.org/2000/svg" version="1.1" viewBox="0 0 20 20">
  <!-- Generator: Adobe Illustrator 28.7.1, SVG Export Plug-In . SVG Version: 1.2.0 Build 142)  -->
  <g>
    <g id="Livsstil">
      <circle cx="10" cy="4" r="2" fill="#fff"/>
      <path d="M19,14v-2c-2.2,0-4.2-1-5.6-2.7l-1.3-1.6c-.4-.5-.9-.7-1.5-.7h-1.1c-.6,0-1.2.3-1.5.7l-1.3,1.6c-1.4,1.7-3.4,2.7-5.6,2.7v2c2.8,0,5.2-1.2,7-3.2v2.2l-3.9,1.6c-.7.3-1.1.9-1.1,1.7s.8,1.8,1.8,1.8h2.2v-.5c0-1.4,1.1-2.5,2.5-2.5h3c.3,0,.5.2.5.5s-.2.5-.5.5h-3c-.8,0-1.5.7-1.5,1.5v.5h7.2c1,0,1.8-.8,1.8-1.8s-.4-1.4-1.1-1.7l-3.9-1.6v-2.2c1.8,2.1,4.2,3.2,7,3.2Z" fill="#fff"/>
    </g>
  </g>
</svg>