<?xml version="1.0" encoding="UTF-8"?>
<svg xmlns="http://www.w3.org/2000/svg" version="1.1" viewBox="0 0 20 20">
  <!-- Generator: Adobe Illustrator 28.7.1, SVG Export Plug-In . SVG Version: 1.2.0 Build 142)  -->
  <g>
    <g id="Nyheder_x5F_blue">
      <path d="M19,1.9l-1.5,1.5-1.5-1.5-1.5,1.5-1.5-1.5-1.5,1.5-1.5-1.5-1.5,1.5-1.5-1.5-1.5,1.5-1.5-1.5-1.5,1.5-1.5-1.5v14.4c0,1,.8,1.8,1.8,1.8h14.4c1,0,1.8-.8,1.8-1.8V1.9ZM9.1,16.3H2.8v-5.4h6.3v5.4ZM17.2,16.3h-6.3v-1.8h6.3v1.8ZM17.2,12.7h-6.3v-1.8h6.3v1.8ZM17.2,9.1H2.8v-2.7h14.4v2.7Z" fill="#6e6e6e"/>
    </g>
  </g>
</svg>