<?xml version="1.0" encoding="UTF-8"?>
<svg xmlns="http://www.w3.org/2000/svg" version="1.1" viewBox="0 0 20 20">
  <!-- Generator: Adobe Illustrator 28.7.1, SVG Export Plug-In . SVG Version: 1.2.0 Build 142)  -->
  <g>
    <g id="Sport_x5F_blue">
      <path d="M17,3h-2V1H5v2h-2c-1.1,0-2,.9-2,2v1c0,2.6,1.9,4.6,4.4,4.9.6,1.5,2,2.6,3.6,3v3.1h-4v2h10v-2h-4v-3.1c1.6-.3,3-1.5,3.6-3,2.5-.3,4.4-2.4,4.4-4.9v-1c0-1.1-.9-2-2-2ZM3,6v-1h2v3.8c-1.2-.4-2-1.5-2-2.8ZM17,6c0,1.3-.8,2.4-2,2.8v-3.8h2v1Z" fill="#6e6e6e"/>
    </g>
  </g>
</svg>